<?xml version="1.0" encoding="UTF-8" standalone="no"?>
<svg
   id="svg1916"
   version="1.1"
   viewBox="0 0 100 85"
   height="85mm"
   width="100mm"
   sodipodi:docname="Laser cut - 8mm PMMA Black.svg"
   inkscape:version="1.1.2 (b8e25be833, 2022-02-05)"
   xmlns:inkscape="http://www.inkscape.org/namespaces/inkscape"
   xmlns:sodipodi="http://sodipodi.sourceforge.net/DTD/sodipodi-0.dtd"
   xmlns="http://www.w3.org/2000/svg"
   xmlns:svg="http://www.w3.org/2000/svg"
   xmlns:rdf="http://www.w3.org/1999/02/22-rdf-syntax-ns#"
   xmlns:cc="http://creativecommons.org/ns#"
   xmlns:dc="http://purl.org/dc/elements/1.1/">
  <sodipodi:namedview
     pagecolor="#ffffff"
     bordercolor="#666666"
     borderopacity="1"
     objecttolerance="10"
     gridtolerance="10"
     guidetolerance="10"
     inkscape:pageopacity="0"
     inkscape:pageshadow="2"
     inkscape:window-width="1366"
     inkscape:window-height="705"
     id="namedview33"
     showgrid="false"
     showguides="true"
     inkscape:guide-bbox="true"
     inkscape:object-paths="true"
     inkscape:snap-intersection-paths="true"
     inkscape:snap-smooth-nodes="true"
     inkscape:snap-midpoints="true"
     inkscape:snap-object-midpoints="false"
     inkscape:snap-center="true"
     inkscape:zoom="1.4131863"
     inkscape:cx="189.28856"
     inkscape:cy="160.62992"
     inkscape:window-x="-8"
     inkscape:window-y="-8"
     inkscape:window-maximized="1"
     inkscape:current-layer="svg1916"
     inkscape:snap-nodes="false"
     inkscape:snap-bbox="true"
     inkscape:bbox-paths="true"
     inkscape:bbox-nodes="true"
     inkscape:snap-bbox-edge-midpoints="true"
     inkscape:snap-bbox-midpoints="true"
     inkscape:snap-global="true"
     inkscape:document-units="mm"
     inkscape:snap-page="true"
     inkscape:snap-others="true"
     inkscape:pagecheckerboard="0" />
  <defs
     id="defs1910">
    <inkscape:perspective
       id="perspective10"
       inkscape:persp3d-origin="0.49999998 : -514.66664 : 1"
       inkscape:vp_z="0.99999999 : -514.49998 : 1"
       inkscape:vp_y="0 : 999.99996 : 0"
       inkscape:vp_x="0 : -514.49998 : 1"
       sodipodi:type="inkscape:persp3d" />
    <inkscape:perspective
       sodipodi:type="inkscape:persp3d"
       inkscape:vp_x="0 : -514.49998 : 1"
       inkscape:vp_y="0 : 999.99996 : 0"
       inkscape:vp_z="0.99999999 : -514.49998 : 1"
       inkscape:persp3d-origin="0.49999998 : -514.66664 : 1"
       id="perspective2828" />
    <inkscape:perspective
       sodipodi:type="inkscape:persp3d"
       inkscape:vp_x="0 : -514.49998 : 1"
       inkscape:vp_y="0 : 999.99996 : 0"
       inkscape:vp_z="0.99999999 : -514.49998 : 1"
       inkscape:persp3d-origin="0.49999998 : -514.66664 : 1"
       id="perspective3628" />
    <inkscape:perspective
       id="perspective3628-2"
       inkscape:persp3d-origin="0.49999998 : -514.66664 : 1"
       inkscape:vp_z="0.99999999 : -514.49998 : 1"
       inkscape:vp_y="0 : 999.99996 : 0"
       inkscape:vp_x="0 : -514.49998 : 1"
       sodipodi:type="inkscape:persp3d" />
    <inkscape:perspective
       id="perspective2828-0"
       inkscape:persp3d-origin="0.49999998 : -514.66664 : 1"
       inkscape:vp_z="0.99999999 : -514.49998 : 1"
       inkscape:vp_y="0 : 999.99996 : 0"
       inkscape:vp_x="0 : -514.49998 : 1"
       sodipodi:type="inkscape:persp3d" />
    <inkscape:perspective
       sodipodi:type="inkscape:persp3d"
       inkscape:vp_x="0 : -514.49998 : 1"
       inkscape:vp_y="0 : 999.99996 : 0"
       inkscape:vp_z="0.99999999 : -514.49998 : 1"
       inkscape:persp3d-origin="0.49999998 : -514.66664 : 1"
       id="perspective10-0" />
  </defs>
  <metadata
     id="metadata1913">
    <rdf:RDF>
      <cc:Work
         rdf:about="">
        <dc:format>image/svg+xml</dc:format>
        <dc:type
           rdf:resource="http://purl.org/dc/dcmitype/StillImage" />
      </cc:Work>
    </rdf:RDF>
  </metadata>
  <path
     style="fill:none;fill-opacity:1;stroke:#000000;stroke-width:0.3;stroke-linecap:round;stroke-linejoin:round;stroke-miterlimit:4;stroke-dasharray:none;stroke-opacity:1"
     d="m 71.9291,10 c -1.662,0 -2.9999,1.33781 -2.9999,2.99981 H 19 c -3.324,0 -6.0002,2.67617 -6.0002,6.00015 v 7.19181 c -1.662,0 -2.9998,1.33782 -2.9998,2.99982 v 0.38344 c 0,1.662 1.3378,2.99981 2.9998,2.99981 v 33.58297 c 0,3.32395 2.6762,5.99963 6.0002,5.99963 h 5.6038 c 0,1.662 1.3378,2.99982 2.9998,2.99982 h 0.3834 c 1.662,0 2.9998,-1.33782 2.9998,-2.99982 h 49.9298 c 3.324,0 6.0002,-2.67568 6.0002,-5.99963 V 58.966 c 1.662,0 2.9998,-1.33782 2.9998,-2.99982 v -0.38344 c 0,-1.662 -1.3378,-2.99981 -2.9998,-2.99981 V 18.99996 c 0,-3.32398 -2.6762,-6.00017 -6.0002,-6.00015 H 75.3123 C 75.3123,11.33781 73.9745,10 72.3125,10 Z m 0.1917,2.14664 c 0.5799,-6e-5 1.05,0.4701 1.05,1.05006 -2e-4,0.57979 -0.4703,1.04961 -1.05,1.04955 -0.5798,0 -1.0499,-0.46979 -1.0501,-1.04955 -1e-4,-0.57996 0.4701,-1.05012 1.0501,-1.05006 z m -52.5214,3.85351 h 60.7173 c 1.9944,0 3.5997,1.60589 3.5997,3.60029 v 45.95689 c 0,1.9944 -1.6053,3.60029 -3.5997,3.60029 H 19.5994 c -1.9944,0 -3.5998,-1.60589 -3.5998,-3.60029 V 19.60044 c 0,-1.9944 1.6054,-3.60029 3.5998,-3.60029 z m -6.4027,12.33309 c 0.5797,-3e-5 1.0498,0.4698 1.0501,1.04955 0,0.58 -0.4701,1.05013 -1.0501,1.05007 -0.58,6e-5 -1.0501,-0.47007 -1.0501,-1.05007 3e-4,-0.57972 0.4703,-1.04955 1.0501,-1.04955 z M 86.7204,54.7244 c 0.5797,-3e-5 1.0498,0.46979 1.0501,1.04954 0,0.57999 -0.4701,1.05012 -1.0501,1.05007 -0.58,5e-5 -1.0501,-0.47008 -1.0501,-1.05007 3e-4,-0.57975 0.4703,-1.04954 1.0501,-1.04954 z M 27.7953,70.91049 c 0.58,-5e-5 1.0502,0.47007 1.0501,1.05006 -3e-4,0.57976 -0.4703,1.04955 -1.0501,1.04955 -0.5797,3e-5 -1.0498,-0.46979 -1.0501,-1.04955 0,-0.57999 0.4701,-1.05011 1.0501,-1.05006 z"
     id="path1652"
     inkscape:connector-curvature="0"
     sodipodi:nodetypes="scsscsscsscsscsscsscsccsscccccsssssssssccccccccccccccc" />
</svg>
