<?xml version="1.0" encoding="UTF-8" standalone="no"?>
<svg
   id="svg1916"
   version="1.1"
   viewBox="0 0 115 95"
   height="95mm"
   width="115mm"
   sodipodi:docname="Laser cut - 2mm PMMA Transparent.svg"
   inkscape:version="1.1.2 (b8e25be833, 2022-02-05)"
   xmlns:inkscape="http://www.inkscape.org/namespaces/inkscape"
   xmlns:sodipodi="http://sodipodi.sourceforge.net/DTD/sodipodi-0.dtd"
   xmlns="http://www.w3.org/2000/svg"
   xmlns:svg="http://www.w3.org/2000/svg"
   xmlns:rdf="http://www.w3.org/1999/02/22-rdf-syntax-ns#"
   xmlns:cc="http://creativecommons.org/ns#"
   xmlns:dc="http://purl.org/dc/elements/1.1/">
  <sodipodi:namedview
     pagecolor="#ffffff"
     bordercolor="#666666"
     borderopacity="1"
     objecttolerance="10"
     gridtolerance="10"
     guidetolerance="10"
     inkscape:pageopacity="0"
     inkscape:pageshadow="2"
     inkscape:window-width="1366"
     inkscape:window-height="705"
     id="namedview33"
     showgrid="false"
     showguides="true"
     inkscape:guide-bbox="true"
     inkscape:object-paths="true"
     inkscape:snap-intersection-paths="true"
     inkscape:snap-smooth-nodes="true"
     inkscape:snap-midpoints="true"
     inkscape:snap-object-midpoints="false"
     inkscape:snap-center="true"
     inkscape:zoom="0.58711886"
     inkscape:cx="150.73609"
     inkscape:cy="141.36831"
     inkscape:window-x="-8"
     inkscape:window-y="-8"
     inkscape:window-maximized="1"
     inkscape:current-layer="svg1916"
     inkscape:snap-nodes="false"
     inkscape:snap-bbox="true"
     inkscape:bbox-paths="true"
     inkscape:bbox-nodes="true"
     inkscape:snap-bbox-edge-midpoints="true"
     inkscape:snap-bbox-midpoints="true"
     inkscape:snap-global="true"
     inkscape:document-units="mm"
     inkscape:snap-page="true"
     inkscape:snap-others="true"
     inkscape:pagecheckerboard="0" />
  <defs
     id="defs1910">
    <inkscape:perspective
       id="perspective10"
       inkscape:persp3d-origin="0.49999999 : -504.66667 : 1"
       inkscape:vp_z="1 : -504.50001 : 1"
       inkscape:vp_y="0 : 1000 : 0"
       inkscape:vp_x="0 : -504.50001 : 1"
       sodipodi:type="inkscape:persp3d" />
    <inkscape:perspective
       sodipodi:type="inkscape:persp3d"
       inkscape:vp_x="0 : -504.50001 : 1"
       inkscape:vp_y="0 : 1000 : 0"
       inkscape:vp_z="1 : -504.50001 : 1"
       inkscape:persp3d-origin="0.49999999 : -504.66667 : 1"
       id="perspective2828" />
    <inkscape:perspective
       sodipodi:type="inkscape:persp3d"
       inkscape:vp_x="0 : -504.50001 : 1"
       inkscape:vp_y="0 : 1000 : 0"
       inkscape:vp_z="1 : -504.50001 : 1"
       inkscape:persp3d-origin="0.49999999 : -504.66667 : 1"
       id="perspective3628" />
    <inkscape:perspective
       id="perspective3628-2"
       inkscape:persp3d-origin="0.49999999 : -504.66667 : 1"
       inkscape:vp_z="1 : -504.50001 : 1"
       inkscape:vp_y="0 : 1000 : 0"
       inkscape:vp_x="0 : -504.50001 : 1"
       sodipodi:type="inkscape:persp3d" />
    <inkscape:perspective
       id="perspective2828-0"
       inkscape:persp3d-origin="0.49999999 : -504.66667 : 1"
       inkscape:vp_z="1 : -504.50001 : 1"
       inkscape:vp_y="0 : 1000 : 0"
       inkscape:vp_x="0 : -504.50001 : 1"
       sodipodi:type="inkscape:persp3d" />
    <inkscape:perspective
       sodipodi:type="inkscape:persp3d"
       inkscape:vp_x="0 : -504.50001 : 1"
       inkscape:vp_y="0 : 1000 : 0"
       inkscape:vp_z="1 : -504.50001 : 1"
       inkscape:persp3d-origin="0.49999999 : -504.66667 : 1"
       id="perspective10-0" />
  </defs>
  <metadata
     id="metadata1913">
    <rdf:RDF>
      <cc:Work
         rdf:about="">
        <dc:format>image/svg+xml</dc:format>
        <dc:type
           rdf:resource="http://purl.org/dc/dcmitype/StillImage" />
      </cc:Work>
    </rdf:RDF>
  </metadata>
  <path
     inkscape:connector-curvature="0"
     id="path864"
     d="m 25.75011,10.15 c -2.2365,-8e-5 -4.05009,1.81318 -4.04988,4.04988 0,0.56871 0.11903,1.10945 0.33072,1.60042 -0.018,0.064 -0.03,0.12829 -0.03,0.1974 v 5.25033 c 0,0.41517 -0.33505,0.75137 -0.75034,0.75137 h -5.25083 c -0.41301,0 -0.74838,0.33543 -0.74931,0.74931 v 13.69373 c -0.33548,-0.09 -0.68617,-0.14211 -1.05007,-0.14211 -2.23679,0 -4.05058,1.81298 -4.0504,4.04988 0,2.23609 1.81451,4.04781 4.0504,4.04781 0.5684,0 1.10852,-0.11777 1.59939,-0.32918 0.064,0.018 0.13028,0.031 0.19999,0.031 h 5.25083 c 0.41539,0 0.75065,0.33601 0.75034,0.74931 v 0.28577 l 1.00046,0.52865 V 60.4363 l -1.00097,0.52917 v 9.97664 C 21.66493,70.85211 21.31438,70.8 20.95037,70.8 c -2.23671,-2.2e-4 -4.05058,1.81349 -4.05039,4.0504 0,2.23612 1.81461,4.04781 4.05039,4.04781 0.56799,0 1.10766,-0.11796 1.59835,-0.32918 0.064,0.018 0.13133,0.031 0.20154,0.031 h 20.25975 c -0.09,0.3357 -0.14314,0.68647 -0.14314,1.05058 0,2.23611 1.8145,4.0479 4.0504,4.04782 2.2361,0 4.04898,-1.81171 4.04988,-4.04782 1.1e-4,-0.36411 -0.0529,-0.71488 -0.14263,-1.05058 h 41.61915 c -0.09,0.3357 -0.1432,0.68647 -0.1431,1.05058 0,2.23611 1.8145,4.0479 4.0504,4.04782 2.2361,0 4.049,-1.81171 4.0499,-4.04782 0,-0.569 -0.1185,-1.10964 -0.3303,-1.60094 0.018,-0.064 0.03,-0.13122 0.03,-0.20102 V 50.83067 c 0.3353,0.09 0.6861,0.14212 1.0496,0.14212 2.2361,0 4.049,-1.8118 4.0499,-4.04781 0,-2.2369 -1.8129,-4.04965 -4.0499,-4.04937 -0.3635,0 -0.7144,0.052 -1.0496,0.14211 V 15.9982 c 0,-0.069 -0.013,-0.13442 -0.031,-0.19792 0.2118,-0.49097 0.3306,-1.03129 0.3308,-1.5999 0,-2.2369 -1.8129,-4.05017 -4.0499,-4.04988 -2.2368,0 -4.0506,1.81298 -4.0504,4.04988 10e-5,0.36322 0.053,0.71365 0.1426,1.04852 H 29.65734 c 0.09,-0.33498 0.14251,-0.6853 0.14262,-1.04852 0,-2.23679 -1.81266,-4.04998 -4.04936,-4.04988 z m -5.2e-4,3.0484 c 0.5524,-9e-5 1.00046,0.44857 1.00046,1.00097 -2e-4,0.55213 -0.44824,0.99942 -1.00046,0.99942 -0.55214,0 -0.99965,-0.44729 -0.99994,-0.99942 0,-0.5524 0.44753,-1.00106 0.99994,-1.00097 z m 70.60038,0 c 0.5524,-9e-5 1.0004,0.44857 1.0004,1.00097 -2e-4,0.55213 -0.4482,0.99942 -1.0004,0.99942 -0.5522,0 -0.9997,-0.44729 -1,-0.99942 0,-0.5524 0.4476,-1.00106 1,-1.00097 z m -36.33012,6.80009 h 0.001 c 0.01,-5.3e-4 0.0191,-5.3e-4 0.0289,0 h 2.53882 c 0.1655,-2.7e-4 0.3001,0.13323 0.3008,0.29869 v 7.61969 c 1e-4,0.16606 -0.1347,0.30064 -0.3008,0.30024 h -2.53882 c -0.16605,5.3e-4 -0.30087,-0.13418 -0.30076,-0.30024 v -7.61969 c -5e-5,-0.1544 0.11712,-0.28363 0.27079,-0.29869 z m 5.99862,0 v 0 c 0.01,-5.3e-4 0.019,-5.3e-4 0.029,0 h 2.5409 c 0.1647,7.9e-4 0.298,0.13403 0.2987,0.29869 v 7.61969 c 1e-4,0.16525 -0.1334,0.2995 -0.2987,0.30024 h -2.5409 c -0.1655,-5.3e-4 -0.2993,-0.13479 -0.2992,-0.30024 v -7.61969 c -2e-4,-0.15369 0.1158,-0.28265 0.2687,-0.29869 z m 6.0007,0 h 5e-4 v 0 c 0.01,-5.3e-4 0.02,-5.3e-4 0.03,0 h 2.5388 c 0.1655,-5.3e-4 0.3,0.13322 0.3008,0.29869 v 7.61969 c 1e-4,0.16607 -0.1347,0.30066 -0.3008,0.30024 h -2.5388 c -0.1661,5.3e-4 -0.3009,-0.13418 -0.3008,-0.30024 v -7.61969 c -1e-4,-0.1537 0.1159,-0.28267 0.2687,-0.29869 z m 6.0011,0 h 6e-4 c 0.01,-5.3e-4 0.019,-5.3e-4 0.029,0 h 2.5409 c 0.1646,7.9e-4 0.2979,0.13403 0.2987,0.29869 v 7.61969 c 1e-4,0.16525 -0.1335,0.2995 -0.2987,0.30024 h -2.5409 c -0.1653,-8e-4 -0.2988,-0.13499 -0.2987,-0.30024 v -7.61969 c -2e-4,-0.15387 0.1161,-0.2829 0.2692,-0.29869 z M 14.19939,39.3482 c 0.5524,-9e-5 1.00046,0.44806 1.00046,1.00046 -2e-4,0.55213 -0.44824,0.99942 -1.00046,0.99942 -0.55214,0 -0.99964,-0.44729 -0.99993,-0.99942 0,-0.5524 0.44752,-1.00055 0.99993,-1.00046 z m 61.51928,0.63821 h 12.701 c 0.1657,5.3e-4 0.2996,0.13508 0.2992,0.30075 v 6.60012 c -8e-4,0.16486 -0.1343,0.29825 -0.2992,0.29869 h -12.701 c -0.1647,-8e-4 -0.298,-0.13404 -0.2987,-0.29869 v -6.60012 c -6e-4,-0.16546 0.1332,-0.30001 0.2987,-0.30075 z m 25.4305,5.93607 c 0.5524,-1e-4 1.0004,0.44857 1.0004,1.00097 -2e-4,0.55213 -0.4482,0.99941 -1.0004,0.99941 -0.5522,0 -0.9997,-0.44728 -1,-0.99941 0,-0.5524 0.4476,-1.00107 1,-1.00097 z m -51.57726,5.16556 c 0.69019,2.6e-4 1.24956,0.55988 1.24954,1.25006 2e-5,0.6902 -0.55935,1.24978 -1.24954,1.25005 -0.6904,4e-5 -1.25007,-0.55963 -1.25005,-1.25005 -2e-5,-0.69039 0.55965,-1.25011 1.25005,-1.25006 z m 10.44794,14.11904 h 0.001 c 0.01,-5.3e-4 0.0191,-5.3e-4 0.0289,0 h 2.53882 c 0.1657,-5.3e-4 0.3004,0.13353 0.3008,0.29921 V 73.127 c -5e-4,0.16567 -0.1351,0.2996 -0.3008,0.2992 h -2.53882 c -0.16567,5.3e-4 -0.30031,-0.13353 -0.30076,-0.2992 v -7.62071 c -2.6e-4,-0.15462 0.11692,-0.28413 0.27079,-0.29921 z m 5.99862,0 v 0 c 0.01,-5.3e-4 0.019,-5.3e-4 0.029,0 h 2.5409 c 0.1649,7.9e-4 0.2983,0.13434 0.2987,0.29921 V 73.127 c -5e-4,0.16486 -0.1338,0.29846 -0.2987,0.2992 h -2.5409 c -0.1651,-5.2e-4 -0.2988,-0.13415 -0.2992,-0.2992 v -7.62071 c -6e-4,-0.15389 0.1157,-0.28315 0.2687,-0.29921 z m 6.0022,0 h 5e-4 c 0.01,-5.3e-4 0.021,-5.3e-4 0.031,0 h 2.5389 c 0.1657,-5.3e-4 0.3003,0.13353 0.3007,0.29921 V 73.127 c -5e-4,0.16567 -0.135,0.2996 -0.3007,0.2992 h -2.5389 c -0.1657,5.3e-4 -0.3003,-0.13352 -0.3007,-0.2992 v -7.62071 c -6e-4,-0.15408 0.1159,-0.2834 0.2692,-0.29921 z m 5.9996,0 h 6e-4 c 0.01,-5.3e-4 0.019,-5.3e-4 0.029,0 h 2.5409 c 0.1648,7.9e-4 0.2982,0.13434 0.2987,0.29921 V 73.127 c -6e-4,0.16486 -0.1339,0.29846 -0.2987,0.2992 h -2.5409 c -0.1649,-7.9e-4 -0.2983,-0.13434 -0.2987,-0.2992 v -7.62071 c -6e-4,-0.15408 0.1159,-0.2834 0.2692,-0.29921 z m -57.0709,8.64029 c 0.5524,-9e-5 1.00045,0.44805 1.00045,1.00045 -2e-4,0.55213 -0.44823,0.99942 -1.00045,0.99942 -0.55214,0 -0.99966,-0.44729 -0.99995,-0.99942 0,-0.5524 0.44754,-1.00054 0.99995,-1.00045 z m 25.96689,4.80074 c 0.5524,-9e-5 1.00046,0.44857 1.00046,1.00097 -2e-4,0.55213 -0.44824,0.99942 -1.00046,0.99942 -0.55214,0 -0.99965,-0.44729 -0.99994,-0.99942 0,-0.5524 0.44753,-1.00106 0.99994,-1.00097 z m 49.43371,0 c 0.5524,-9e-5 1.0004,0.44857 1.0004,1.00097 -2e-4,0.55213 -0.4482,0.99942 -1.0004,0.99942 -0.5522,0 -0.9997,-0.44729 -1,-0.99942 0,-0.5524 0.4476,-1.00106 1,-1.00097 z"
     style="fill:none;fill-opacity:1;stroke:#000000;stroke-width:0.3;stroke-linecap:round;stroke-linejoin:round;stroke-miterlimit:4;stroke-dasharray:none;stroke-opacity:1"
     sodipodi:nodetypes="cccssssccscscssccccccccscscsccccccccscscccscccccccccccsccccscccccccccccccccccccccccccccccccccccccccccccccccccccccscccccccccccccsccccccccccccccccccccccccccccccccccccccccccccccccccccccccsccccsccccscc" />
</svg>
