<?xml version="1.0" encoding="UTF-8" standalone="no"?>
<svg
   id="svg1916"
   version="1.1"
   viewBox="0 0 100 85"
   height="85mm"
   width="100mm"
   sodipodi:docname="Laser cut - 2mm PMMA Black.svg"
   inkscape:version="1.1.2 (b8e25be833, 2022-02-05)"
   xmlns:inkscape="http://www.inkscape.org/namespaces/inkscape"
   xmlns:sodipodi="http://sodipodi.sourceforge.net/DTD/sodipodi-0.dtd"
   xmlns="http://www.w3.org/2000/svg"
   xmlns:svg="http://www.w3.org/2000/svg"
   xmlns:rdf="http://www.w3.org/1999/02/22-rdf-syntax-ns#"
   xmlns:cc="http://creativecommons.org/ns#"
   xmlns:dc="http://purl.org/dc/elements/1.1/">
  <sodipodi:namedview
     pagecolor="#ffffff"
     bordercolor="#666666"
     borderopacity="1"
     objecttolerance="10"
     gridtolerance="10"
     guidetolerance="10"
     inkscape:pageopacity="0"
     inkscape:pageshadow="2"
     inkscape:window-width="1366"
     inkscape:window-height="705"
     id="namedview33"
     showgrid="false"
     showguides="false"
     inkscape:guide-bbox="true"
     inkscape:object-paths="true"
     inkscape:snap-intersection-paths="true"
     inkscape:snap-smooth-nodes="true"
     inkscape:snap-midpoints="true"
     inkscape:snap-object-midpoints="false"
     inkscape:snap-center="true"
     inkscape:zoom="0.070753806"
     inkscape:cx="2127.0941"
     inkscape:cy="1639.4878"
     inkscape:window-x="-8"
     inkscape:window-y="-8"
     inkscape:window-maximized="1"
     inkscape:current-layer="svg1916"
     inkscape:snap-nodes="false"
     inkscape:snap-bbox="true"
     inkscape:bbox-paths="true"
     inkscape:bbox-nodes="true"
     inkscape:snap-bbox-edge-midpoints="true"
     inkscape:snap-bbox-midpoints="true"
     inkscape:snap-global="true"
     inkscape:document-units="mm"
     inkscape:snap-page="true"
     inkscape:snap-others="true"
     inkscape:pagecheckerboard="0" />
  <defs
     id="defs1910">
    <inkscape:perspective
       id="perspective10"
       inkscape:persp3d-origin="0.49999998 : -514.66664 : 1"
       inkscape:vp_z="0.99999999 : -514.49998 : 1"
       inkscape:vp_y="0 : 999.99996 : 0"
       inkscape:vp_x="0 : -514.49998 : 1"
       sodipodi:type="inkscape:persp3d" />
    <inkscape:perspective
       sodipodi:type="inkscape:persp3d"
       inkscape:vp_x="0 : -514.49998 : 1"
       inkscape:vp_y="0 : 999.99996 : 0"
       inkscape:vp_z="0.99999999 : -514.49998 : 1"
       inkscape:persp3d-origin="0.49999998 : -514.66664 : 1"
       id="perspective2828" />
    <inkscape:perspective
       sodipodi:type="inkscape:persp3d"
       inkscape:vp_x="0 : -514.49998 : 1"
       inkscape:vp_y="0 : 999.99996 : 0"
       inkscape:vp_z="0.99999999 : -514.49998 : 1"
       inkscape:persp3d-origin="0.49999998 : -514.66664 : 1"
       id="perspective3628" />
    <inkscape:perspective
       id="perspective3628-2"
       inkscape:persp3d-origin="0.49999998 : -514.66664 : 1"
       inkscape:vp_z="0.99999999 : -514.49998 : 1"
       inkscape:vp_y="0 : 999.99996 : 0"
       inkscape:vp_x="0 : -514.49998 : 1"
       sodipodi:type="inkscape:persp3d" />
    <inkscape:perspective
       id="perspective2828-0"
       inkscape:persp3d-origin="0.49999998 : -514.66664 : 1"
       inkscape:vp_z="0.99999999 : -514.49998 : 1"
       inkscape:vp_y="0 : 999.99996 : 0"
       inkscape:vp_x="0 : -514.49998 : 1"
       sodipodi:type="inkscape:persp3d" />
    <inkscape:perspective
       sodipodi:type="inkscape:persp3d"
       inkscape:vp_x="0 : -514.49998 : 1"
       inkscape:vp_y="0 : 999.99996 : 0"
       inkscape:vp_z="0.99999999 : -514.49998 : 1"
       inkscape:persp3d-origin="0.49999998 : -514.66664 : 1"
       id="perspective10-0" />
  </defs>
  <metadata
     id="metadata1913">
    <rdf:RDF>
      <cc:Work
         rdf:about="">
        <dc:format>image/svg+xml</dc:format>
        <dc:type
           rdf:resource="http://purl.org/dc/dcmitype/StillImage" />
      </cc:Work>
    </rdf:RDF>
  </metadata>
  <path
     inkscape:connector-curvature="0"
     style="fill:none;fill-opacity:1;stroke:#000000;stroke-width:0.300001;stroke-linecap:round;stroke-linejoin:round;stroke-miterlimit:4;stroke-dasharray:none;stroke-opacity:1"
     d="m 28.137625,10.15 c 1.662008,0 2.999835,1.33782 2.999835,2.999817 h 49.929512 c 3.324028,0 6.000182,2.67617 6.000182,6.000147 v 7.191807 c 1.661999,0 2.999846,1.337817 2.999846,2.999817 v 0.38343 c 0,1.662 -1.337847,2.99982 -2.999846,2.99982 v 33.582939 c 0,3.32396 -2.676154,5.99964 -6.000182,5.99964 h -5.603819 c 0,1.662 -1.337827,2.99982 -2.999836,2.99982 h -0.383442 c -1.662008,0 -2.999835,-1.33782 -2.999835,-2.99982 H 19.150018 c -3.324018,0 -6.000192,-2.67568 -6.000192,-5.99964 v -7.191804 c -1.662009,0 -2.999826,-1.33781 -2.999826,-2.99981 v -0.38344 c 0,-1.662 1.337817,-2.999817 2.999826,-2.999817 V 19.149964 c 0,-3.323977 2.676174,-6.000167 6.000192,-6.000147 h 5.604339 c 0,-1.661997 1.337817,-2.999817 2.999826,-2.999817 z m -0.191721,2.146637 c -0.579963,-5e-5 -1.050066,0.47011 -1.050066,1.05007 2.6e-4,0.57979 0.470333,1.0496 1.050066,1.04954 0.579783,0 1.049835,-0.46978 1.050075,-1.04954 8e-5,-0.57996 -0.470102,-1.05012 -1.050075,-1.05007 z m 58.924359,16.186601 c -0.579723,-3e-5 -1.049806,0.4698 -1.050066,1.04955 0,0.58 0.470113,1.05012 1.050066,1.05006 0.579973,6e-5 1.050145,-0.47006 1.050075,-1.05006 -2.4e-4,-0.57972 -0.470292,-1.04955 -1.050075,-1.04955 z M 13.346197,54.874373 c -0.579733,-3e-5 -1.049805,0.4698 -1.050065,1.04955 0,0.57999 0.470102,1.05012 1.050065,1.05007 0.579983,5e-5 1.050156,-0.47008 1.050076,-1.05007 -2.4e-4,-0.57975 -0.470293,-1.04955 -1.050076,-1.04955 z m 58.925399,16.186094 c -0.579973,-5e-5 -1.050155,0.47007 -1.050075,1.05006 2.4e-4,0.57976 0.470292,1.04955 1.050075,1.04955 0.579733,3e-5 1.049796,-0.46979 1.050066,-1.04955 0,-0.57999 -0.470103,-1.05011 -1.050066,-1.05006 z"
     id="path1652-4-3"
     sodipodi:nodetypes="scsscsscsscsscsscsscsccsscccccccccccccccccccc" />
</svg>
