<?xml version="1.0" encoding="UTF-8" standalone="no"?>
<svg
   id="svg1916"
   version="1.1"
   viewBox="0 0 115 95"
   height="95mm"
   width="115mm"
   sodipodi:docname="NA Laser cut - 2mm PMMA Transparent - With SWD for development.svg"
   inkscape:version="1.1.2 (b8e25be833, 2022-02-05)"
   xmlns:inkscape="http://www.inkscape.org/namespaces/inkscape"
   xmlns:sodipodi="http://sodipodi.sourceforge.net/DTD/sodipodi-0.dtd"
   xmlns="http://www.w3.org/2000/svg"
   xmlns:svg="http://www.w3.org/2000/svg"
   xmlns:rdf="http://www.w3.org/1999/02/22-rdf-syntax-ns#"
   xmlns:cc="http://creativecommons.org/ns#"
   xmlns:dc="http://purl.org/dc/elements/1.1/">
  <sodipodi:namedview
     pagecolor="#ffffff"
     bordercolor="#666666"
     borderopacity="1"
     objecttolerance="10"
     gridtolerance="10"
     guidetolerance="10"
     inkscape:pageopacity="0"
     inkscape:pageshadow="2"
     inkscape:window-width="1366"
     inkscape:window-height="705"
     id="namedview33"
     showgrid="false"
     showguides="true"
     inkscape:guide-bbox="true"
     inkscape:object-paths="true"
     inkscape:snap-intersection-paths="true"
     inkscape:snap-smooth-nodes="true"
     inkscape:snap-midpoints="true"
     inkscape:snap-object-midpoints="false"
     inkscape:snap-center="true"
     inkscape:zoom="0.58711886"
     inkscape:cx="150.73609"
     inkscape:cy="141.36831"
     inkscape:window-x="-8"
     inkscape:window-y="-8"
     inkscape:window-maximized="1"
     inkscape:current-layer="svg1916"
     inkscape:snap-nodes="false"
     inkscape:snap-bbox="true"
     inkscape:bbox-paths="true"
     inkscape:bbox-nodes="true"
     inkscape:snap-bbox-edge-midpoints="true"
     inkscape:snap-bbox-midpoints="true"
     inkscape:snap-global="true"
     inkscape:document-units="mm"
     inkscape:snap-page="true"
     inkscape:snap-others="true"
     inkscape:pagecheckerboard="0" />
  <defs
     id="defs1910">
    <inkscape:perspective
       id="perspective10"
       inkscape:persp3d-origin="0.49999999 : -504.66667 : 1"
       inkscape:vp_z="1 : -504.50001 : 1"
       inkscape:vp_y="0 : 1000 : 0"
       inkscape:vp_x="0 : -504.50001 : 1"
       sodipodi:type="inkscape:persp3d" />
    <inkscape:perspective
       sodipodi:type="inkscape:persp3d"
       inkscape:vp_x="0 : -504.50001 : 1"
       inkscape:vp_y="0 : 1000 : 0"
       inkscape:vp_z="1 : -504.50001 : 1"
       inkscape:persp3d-origin="0.49999999 : -504.66667 : 1"
       id="perspective2828" />
    <inkscape:perspective
       sodipodi:type="inkscape:persp3d"
       inkscape:vp_x="0 : -504.50001 : 1"
       inkscape:vp_y="0 : 1000 : 0"
       inkscape:vp_z="1 : -504.50001 : 1"
       inkscape:persp3d-origin="0.49999999 : -504.66667 : 1"
       id="perspective3628" />
    <inkscape:perspective
       id="perspective3628-2"
       inkscape:persp3d-origin="0.49999999 : -504.66667 : 1"
       inkscape:vp_z="1 : -504.50001 : 1"
       inkscape:vp_y="0 : 1000 : 0"
       inkscape:vp_x="0 : -504.50001 : 1"
       sodipodi:type="inkscape:persp3d" />
    <inkscape:perspective
       id="perspective2828-0"
       inkscape:persp3d-origin="0.49999999 : -504.66667 : 1"
       inkscape:vp_z="1 : -504.50001 : 1"
       inkscape:vp_y="0 : 1000 : 0"
       inkscape:vp_x="0 : -504.50001 : 1"
       sodipodi:type="inkscape:persp3d" />
    <inkscape:perspective
       sodipodi:type="inkscape:persp3d"
       inkscape:vp_x="0 : -504.50001 : 1"
       inkscape:vp_y="0 : 1000 : 0"
       inkscape:vp_z="1 : -504.50001 : 1"
       inkscape:persp3d-origin="0.49999999 : -504.66667 : 1"
       id="perspective10-0" />
  </defs>
  <metadata
     id="metadata1913">
    <rdf:RDF>
      <cc:Work
         rdf:about="">
        <dc:format>image/svg+xml</dc:format>
        <dc:type
           rdf:resource="http://purl.org/dc/dcmitype/StillImage" />
      </cc:Work>
    </rdf:RDF>
  </metadata>
  <path
     style="fill:none;fill-opacity:1;stroke:#000000;stroke-width:0.3;stroke-linecap:round;stroke-linejoin:round;stroke-miterlimit:4;stroke-dasharray:none;stroke-opacity:1"
     d="m 25.75011,10.15 c -2.2365,-8e-5 -4.05009,1.81317 -4.04988,4.04987 0,0.56871 0.11904,1.109455 0.33073,1.600425 -0.018,0.064 -0.03,0.1283 -0.03,0.19741 v 5.25033 c 0,0.41517 -0.33505,0.75137 -0.75034,0.75137 h -5.25085 c -0.41301,0 -0.74838,0.33543 -0.74931,0.74931 v 13.69373 c -0.33548,-0.09 -0.68616,-0.14211 -1.05006,-0.14211 -2.2368,0 -4.05058,1.81298 -4.0504,4.04988 0,2.23608 1.8145,4.047798 4.0504,4.047798 0.5684,0 1.10851,-0.11777 1.59938,-0.329178 0.064,0.018 0.13028,0.031 0.19999,0.031 h 5.25085 c 0.41539,0 0.75065,0.336008 0.75034,0.749308 v 0.28577 l 1.00045,0.52865 v 14.77274 l -1.00097,0.52917 v 9.97664 c -0.33551,-0.09 -0.68605,-0.14211 -1.05007,-0.14211 -2.23672,-2.2e-4 -4.05059,1.81349 -4.0504,4.0504 0,2.23612 1.81461,4.04781 4.0504,4.04781 0.568,0 1.10767,-0.11796 1.59836,-0.32918 0.064,0.018 0.13133,0.031 0.20154,0.031 h 20.25977 c -0.09,0.3357 -0.1432,0.68647 -0.1432,1.05058 0,2.23611 1.8146,4.0479 4.0504,4.04782 2.2361,0 4.049,-1.81171 4.0499,-4.04782 10e-5,-0.36411 -0.053,-0.71488 -0.1426,-1.05058 h 41.6192 c -0.09,0.3357 -0.1432,0.68647 -0.1431,1.05058 0,2.23611 1.8145,4.0479 4.0503,4.04782 2.2361,0 4.049,-1.81171 4.0499,-4.04782 0,-0.569 -0.1185,-1.10964 -0.3302,-1.60094 0.018,-0.064 0.03,-0.13122 0.03,-0.20102 v -27.01798 c 0.3353,0.09 0.686,0.14212 1.0496,0.14212 2.2361,0 4.0489,-1.8118 4.0498,-4.04782 0,-2.2369 -1.8128,-4.049648 -4.0498,-4.049368 -0.3636,0 -0.7144,0.052 -1.0496,0.14211 v -27.01951 c 0,-0.069 -0.013,-0.13443 -0.031,-0.19793 0.2118,-0.49097 0.3306,-1.031295 0.3307,-1.599905 0,-2.2369 -1.8128,-4.05016 -4.0498,-4.04987 -2.2369,0 -4.0507,1.81297 -4.0504,4.04987 1e-4,0.36322 0.053,0.71365 0.1426,1.048525 h -62.7854 c 0.09,-0.334985 0.14251,-0.685305 0.14263,-1.048525 0,-2.23679 -1.81267,-4.04997 -4.04937,-4.04987 z m -5.1e-4,3.04839 c 0.5524,-9e-5 1.00045,0.44857 1.00045,1.00097 -2e-4,0.55213 -0.44823,0.99942 -1.00045,0.99942 -0.55214,0 -0.99965,-0.44729 -0.99994,-0.99942 0,-0.5524 0.44753,-1.00106 0.99994,-1.00097 z m 70.60034,0 c 0.5524,-9e-5 1.0005,0.44857 1.0005,1.00097 -2e-4,0.55213 -0.4482,0.99942 -1.0005,0.99942 -0.5521,0 -0.9996,-0.44729 -0.9999,-0.99942 0,-0.5524 0.4475,-1.00106 0.9999,-1.00097 z m -36.3301,6.800105 v 0 c 0.01,-5.3e-4 0.019,-5.3e-4 0.029,0 h 2.5389 c 0.1655,-2.7e-4 0.3,0.13323 0.3008,0.29869 v 7.61968 c 1e-4,0.16606 -0.1347,0.30064 -0.3008,0.30024 h -2.5389 c -0.166,5.3e-4 -0.3008,-0.13418 -0.3007,-0.30024 v -7.61968 c -10e-5,-0.1544 0.1171,-0.28363 0.2708,-0.29869 z m 5.9986,0 h 0.001 c 0.01,-5.3e-4 0.019,-5.3e-4 0.029,0 h 2.541 c 0.1646,7.9e-4 0.2979,0.13403 0.2987,0.29869 v 7.61968 c 10e-5,0.16525 -0.1335,0.2995 -0.2987,0.30024 h -2.541 c -0.1654,-5.3e-4 -0.2993,-0.13479 -0.2992,-0.30024 v -7.61968 c -2e-4,-0.15369 0.1159,-0.28265 0.2688,-0.29869 z m 6.0007,0 h 5e-4 v 0 c 0.01,-5.3e-4 0.02,-5.3e-4 0.03,0 h 2.5389 c 0.1655,-5.3e-4 0.3,0.13322 0.3008,0.29869 v 7.61968 c 10e-5,0.16607 -0.1347,0.30066 -0.3008,0.30024 h -2.5389 c -0.166,5.3e-4 -0.3008,-0.13418 -0.3007,-0.30024 v -7.61968 c -2e-4,-0.1537 0.1159,-0.28267 0.2687,-0.29869 z m 6.0012,0 h 5e-4 c 0.01,-5.3e-4 0.019,-5.3e-4 0.029,0 h 2.5409 c 0.1647,7.9e-4 0.298,0.13403 0.2987,0.29869 v 7.61968 c 1e-4,0.16525 -0.1334,0.2995 -0.2987,0.30024 h -2.5409 c -0.1652,-8e-4 -0.2988,-0.13499 -0.2987,-0.30024 v -7.61968 c -1e-4,-0.15387 0.1162,-0.2829 0.2693,-0.29869 z m -63.82095,19.34971 c 0.5524,-9e-5 1.00046,0.44806 1.00046,1.00046 -2e-4,0.55213 -0.44824,0.99942 -1.00046,0.99942 -0.55214,0 -0.99965,-0.44729 -0.99994,-0.99942 0,-0.5524 0.44753,-1.00055 0.99994,-1.00046 z m 61.51925,0.63821 h 12.7011 c 0.1656,5.3e-4 0.2996,0.13508 0.2992,0.30075 v 6.600108 c -8e-4,0.16486 -0.1344,0.29825 -0.2992,0.29869 h -12.7011 c -0.1646,-8e-4 -0.2979,-0.13404 -0.2987,-0.29869 v -6.600108 c -5e-4,-0.16546 0.1333,-0.30001 0.2987,-0.30075 z m 25.4305,5.936058 c 0.5524,-10e-5 1.0005,0.44857 1.0005,1.00097 -2e-4,0.55213 -0.4482,0.99942 -1.0005,0.99942 -0.5521,0 -0.9996,-0.44729 -0.9999,-0.99942 0,-0.5524 0.4475,-1.00107 0.9999,-1.00097 z m -46.6282,1.07642 c 0.8533,-7e-5 1.7133,0 2.5689,0 0.1654,-2.7e-4 0.3,0.13323 0.3007,0.29869 v 12.69948 c 10e-5,0.16606 -0.1347,0.30064 -0.3007,0.30024 h -2.5389 c -0.166,5.3e-4 -0.3008,-0.13418 -0.3007,-0.30024 v -12.69948 c -10e-5,-0.1544 0.1171,-0.28363 0.2707,-0.29869 z m -4.949,4.08915 c 0.6902,2.6e-4 1.2495,0.55988 1.2495,1.25006 0,0.6902 -0.5593,1.24978 -1.2495,1.25005 -0.6904,4e-5 -1.2501,-0.55963 -1.2501,-1.25005 0,-0.69039 0.5597,-1.25011 1.2501,-1.25006 z m 10.4479,14.11903 v 0 c 0.01,-5.3e-4 0.019,-5.3e-4 0.029,0 h 2.5389 c 0.1657,-5.3e-4 0.3003,0.13353 0.3008,0.29921 v 7.62072 c -6e-4,0.16567 -0.1351,0.2996 -0.3008,0.2992 h -2.5389 c -0.1656,5.3e-4 -0.3003,-0.13353 -0.3007,-0.2992 v -7.62072 c -3e-4,-0.15462 0.1169,-0.28413 0.2708,-0.29921 z m 5.9986,0 h 0.001 c 0.01,-5.3e-4 0.019,-5.3e-4 0.029,0 h 2.541 c 0.1648,7.9e-4 0.2982,0.13434 0.2987,0.29921 v 7.62072 c -6e-4,0.16486 -0.1339,0.29846 -0.2987,0.2992 h -2.541 c -0.165,-5.2e-4 -0.2987,-0.13415 -0.2992,-0.2992 v -7.62072 c -5e-4,-0.15389 0.1157,-0.28315 0.2688,-0.29921 z m 6.0023,0 h 5e-4 c 0.01,-5.3e-4 0.021,-5.3e-4 0.031,0 h 2.5388 c 0.1657,-5.3e-4 0.3004,0.13353 0.3008,0.29921 v 7.62072 c -5e-4,0.16567 -0.1351,0.2996 -0.3008,0.2992 h -2.5388 c -0.1657,5.3e-4 -0.3003,-0.13352 -0.3008,-0.2992 v -7.62072 c -5e-4,-0.15408 0.116,-0.2834 0.2693,-0.29921 z m 5.9996,0 h 5e-4 c 0.01,-5.3e-4 0.019,-5.3e-4 0.029,0 h 2.5409 c 0.1649,7.9e-4 0.2983,0.13434 0.2987,0.29921 v 7.62072 c -5e-4,0.16486 -0.1338,0.29846 -0.2987,0.2992 h -2.5409 c -0.1648,-7.9e-4 -0.2982,-0.13434 -0.2987,-0.2992 v -7.62072 c -5e-4,-0.15408 0.116,-0.2834 0.2693,-0.29921 z m -57.07097,8.6403 c 0.5524,-9e-5 1.00046,0.44805 1.00046,1.00045 -2e-4,0.55213 -0.44824,0.99942 -1.00046,0.99942 -0.55214,0 -0.99965,-0.44729 -0.99994,-0.99942 0,-0.5524 0.44753,-1.00054 0.99994,-1.00045 z m 25.96687,4.80074 c 0.5524,-9e-5 1.0005,0.44857 1.0005,1.00097 -2e-4,0.55213 -0.4482,0.99942 -1.0005,0.99942 -0.5521,0 -0.9996,-0.44729 -0.9999,-0.99942 0,-0.5524 0.4475,-1.00106 0.9999,-1.00097 z m 49.4337,0 c 0.5524,-9e-5 1.0005,0.44857 1.0005,1.00097 -2e-4,0.55213 -0.4482,0.99942 -1.0005,0.99942 -0.5521,0 -0.9996,-0.44729 -0.9999,-0.99942 0,-0.5524 0.4475,-1.00106 0.9999,-1.00097 z"
     id="path1462-0"
     inkscape:connector-curvature="0" />
</svg>
